<?xml version="1.0" encoding="UTF-8"?><svg id="Layer_2" xmlns="http://www.w3.org/2000/svg" viewBox="0 0 89.7 54.63"><defs><style>.cls-1{fill:#fff;}.cls-2{fill:#1d63ff;}</style></defs><g id="Layer_1-2"><g><path class="cls-2" d="m75.53,15.07c0,.92-.75,1.67-1.67,1.67-4.63,0-8.37,3.75-8.37,8.37,0,.92-.75,1.67-1.67,1.67s-1.67-.75-1.67-1.67c0-4.63-3.75-8.37-8.37-8.37s-8.37,3.75-8.37,8.37v3.35c0,.92-.75,1.67-1.67,1.67s-1.67-.75-1.67-1.67v-3.35c0-4.63-3.75-8.37-8.37-8.37s-8.37,3.75-8.37,8.37c0,.92-.75,1.67-1.67,1.67s-1.67-.75-1.67-1.67c0-4.63-3.75-8.37-8.37-8.37-.92,0-1.67-.75-1.67-1.67s.75-1.67,1.67-1.67c4.63,0,8.37-3.75,8.37-8.37,0-.92.75-1.67,1.67-1.67s1.67.75,1.67,1.67c0,4.63,3.75,8.37,8.37,8.37s8.37-3.75,8.37-8.37V1.67c0-.92.75-1.67,1.67-1.67s1.67.75,1.67,1.67v3.35c0,4.63,3.75,8.37,8.37,8.37s8.37-3.75,8.37-8.37c0-.92.75-1.67,1.67-1.67s1.67.75,1.67,1.67c0,4.63,3.75,8.37,8.37,8.37.92,0,1.67.75,1.67,1.67Z"/><g><path class="cls-1" d="m7.7,54.63l-2.32-4.68h-1.82v4.68H0v-13.8h6.91c3.06,0,4.8,2.03,4.8,4.59,0,2.4-1.47,3.68-2.75,4.14l2.81,5.07h-4.08Zm-1.32-10.8h-2.81v3.1h2.81c.93,0,1.72-.6,1.72-1.55s-.79-1.55-1.72-1.55Z"/><path class="cls-1" d="m18.78,54.63v-13.8h3.56v13.8h-3.56Z"/><path class="cls-1" d="m29.95,54.63v-13.8h10.12v3h-6.56v2.3h6.42v3.02h-6.42v5.48h-3.56Z"/><path class="cls-1" d="m50.08,54.63v-10.7h-3.87v-3.1h11.28v3.1h-3.85v10.7h-3.56Z"/><path class="cls-1" d="m63.91,54.63v-13.8h3.56v10.7h5.55v3.1h-9.11Z"/><path class="cls-1" d="m80.93,54.63v-5.57l-5.24-8.24h4.01l3,5.09,2.96-5.09h4.04l-5.21,8.24v5.57h-3.56Z"/></g></g></g></svg>