<?xml version="1.0" encoding="UTF-8"?><svg id="Layer_2" xmlns="http://www.w3.org/2000/svg" viewBox="0 0 85.92 40.7"><defs><style>.cls-1{fill:#1d63ff;}</style></defs><g id="Layer_1-2"><path class="cls-1" d="m85.92,20.35c0,1.25-1.01,2.26-2.26,2.26-6.24,0-11.31,5.06-11.31,11.31,0,1.25-1.01,2.26-2.26,2.26s-2.26-1.01-2.26-2.26c0-6.24-5.06-11.31-11.31-11.31s-11.31,5.06-11.31,11.31v4.52c0,1.25-1.01,2.26-2.26,2.26s-2.26-1.01-2.26-2.26v-4.52c0-6.24-5.06-11.31-11.31-11.31s-11.31,5.06-11.31,11.31c0,1.25-1.01,2.26-2.26,2.26s-2.26-1.01-2.26-2.26c0-6.24-5.06-11.31-11.31-11.31-1.25,0-2.26-1.01-2.26-2.26s1.01-2.26,2.26-2.26c6.24,0,11.31-5.06,11.31-11.31,0-1.25,1.01-2.26,2.26-2.26s2.26,1.01,2.26,2.26c0,6.24,5.06,11.31,11.31,11.31s11.31-5.06,11.31-11.31V2.26c0-1.25,1.01-2.26,2.26-2.26s2.26,1.01,2.26,2.26v4.52c0,6.24,5.06,11.31,11.31,11.31s11.31-5.06,11.31-11.31c0-1.25,1.01-2.26,2.26-2.26s2.26,1.01,2.26,2.26c0,6.24,5.06,11.31,11.31,11.31,1.25,0,2.26,1.01,2.26,2.26Z"/></g></svg>