<?xml version="1.0" encoding="UTF-8"?><svg id="Layer_2" xmlns="http://www.w3.org/2000/svg" viewBox="0 0 272.47 191.58"><defs><style>.cls-1{fill:#00297f;}.cls-2{fill:#00cedb;}.cls-3{fill:#1d63ff;}</style></defs><g id="Layer_1-2"><g><path class="cls-3" d="m167.11,43.46c-1.09-.03-2.19-.05-3.29-.03-1.2.03-2.39.08-3.58.18-1.19.09-2.38.22-3.57.37-1.19.16-2.37.35-3.54.57-1.17.22-2.34.48-3.5.76-1.16.29-2.31.61-3.45.96-1.14.35-2.27.74-3.39,1.15-1.12.42-2.23.87-3.32,1.35-1.09.48-2.17.99-3.23,1.54-1.06.54-2.11,1.12-3.14,1.73-1.03.61-2.04,1.25-3.03,1.92-.99.67-1.96,1.37-2.91,2.1-.95.73-1.87,1.49-2.77,2.27-.9.79-1.78,1.6-2.63,2.44-.85.84-1.68,1.7-2.48,2.59-.8.89-1.58,1.8-2.33,2.73-.75.93-1.47,1.89-2.16,2.86-.69.97-1.36,1.97-2,2.98-.64,1.01-1.24,2.04-1.82,3.09-.58,1.05-1.13,2.11-1.64,3.19-.52,1.08-1,2.17-1.46,3.28-.45,1.11-.87,2.22-1.26,3.35-.39,1.13-.74,2.27-1.06,3.42-.32,1.15-.6,2.31-.86,3.48-.25,1.17-.47,2.34-.64,3.52-.18,1.18-.32,2.37-.42,3.56-.1,1.19-.17,2.38-.2,3.58-.03,1.2-.02,2.39.03,3.59.05,1.2.13,2.39.25,3.58s.27,2.38.46,3.56c.19,1.18.42,2.36.68,3.52.26,1.17.56,2.33.89,3.48.03.1.07.2.1.31,1.2-.15,2.39-.27,3.58-.49,1.83-.33,3.65-.73,5.45-1.21,1.8-.48,3.57-1.04,5.32-1.66,1.75-.63,3.48-1.33,5.17-2.09,1.69-.77,3.36-1.6,4.98-2.51,1.63-.9,3.22-1.87,4.77-2.89,1.55-1.03,3.06-2.12,4.53-3.26,1.47-1.15,2.89-2.35,4.26-3.6,1.37-1.26,2.7-2.57,3.96-3.93,1.27-1.36,2.48-2.77,3.64-4.23,1.16-1.46,2.25-2.96,3.29-4.51,1.04-1.54,2.01-3.13,2.93-4.75.91-1.62,1.77-3.27,2.55-4.96.79-1.69,1.51-3.4,2.17-5.14.66-1.74,1.25-3.5,1.78-5.29.53-1.78.99-3.59,1.38-5.41.39-1.82.72-3.65.97-5.5.26-1.84.44-3.7.56-5.55.12-1.91.16-3.82.15-5.73-.01-1.42-.09-2.84-.17-4.26Z"/><path class="cls-2" d="m59.96,0c.47.78.96,1.56,1.42,2.35.83,1.44,1.62,2.9,2.38,4.37.75,1.47,1.46,2.97,2.12,4.48.66,1.51,1.27,3.04,1.81,4.58.55,1.54,1.03,3.11,1.45,4.68.42,1.58.76,3.17,1.03,4.78.13.81.25,1.62.34,2.43.09.81.16,1.63.21,2.45.05.82.07,1.65.08,2.47,0,.82-.02,1.65-.07,2.47-.05.82-.12,1.65-.21,2.46-.1.82-.22,1.63-.37,2.44-.15.81-.32,1.61-.52,2.41-.2.8-.43,1.59-.68,2.37-.26.78-.54,1.55-.85,2.31-.31.76-.65,1.51-1.02,2.25-.37.74-.77,1.46-1.19,2.16-.43.71-.88,1.39-1.37,2.06s-.99,1.32-1.53,1.95c-.54.63-1.09,1.23-1.68,1.81-.58.58-1.19,1.13-1.83,1.66-.63.53-1.29,1.02-1.96,1.49s-1.37.9-2.09,1.3c-.72.4-1.45.77-2.21,1.1-.98.43-1.99.79-3.01,1.1-1.02.3-2.07.55-3.12.74-1.05.19-2.12.32-3.18.4-1.07.08-2.14.1-3.21.08-1.07-.03-2.14-.1-3.2-.22-1.06-.12-2.12-.28-3.17-.48-.58-.11-1.15-.26-1.72-.39.24,1.3.47,2.61.76,3.9.45,2.02.96,4.02,1.54,6,.29.99.6,1.97.93,2.95.33.98.68,1.95,1.04,2.91.37.96.76,1.92,1.17,2.86.41.95.85,1.89,1.31,2.82.41.83.84,1.66,1.29,2.47.45.81.92,1.62,1.41,2.41.49.79.99,1.57,1.51,2.34.52.77,1.06,1.53,1.62,2.27.56.75,1.13,1.48,1.71,2.2.59.72,1.19,1.43,1.81,2.12,1.24,1.39,2.53,2.72,3.89,4,1.35,1.28,2.76,2.5,4.22,3.65,1.46,1.16,2.96,2.25,4.52,3.28.78.51,1.56,1.01,2.36,1.49.8.48,1.6.94,2.42,1.39.82.44,1.64.87,2.48,1.28.84.41,1.68.8,2.53,1.17.85.37,1.71.72,2.58,1.05.87.33,1.74.65,2.63.94,1.76.59,3.55,1.1,5.36,1.54,1.81.44,3.63.8,5.47,1.08,1.84.28,3.69.49,5.54.62,1.86.13,3.72.19,5.58.17,1.86-.03,3.72-.12,5.57-.29.65-.06,1.3-.19,1.95-.27-.03-.1-.07-.2-.1-.31-.33-1.15-.63-2.31-.89-3.48-.26-1.17-.49-2.34-.68-3.52-.19-1.18-.34-2.37-.46-3.56-.12-1.19-.2-2.38-.25-3.58-.05-1.2-.05-2.39-.03-3.59.03-1.2.1-2.39.2-3.58.1-1.19.25-2.38.42-3.56.18-1.18.39-2.35.64-3.52.25-1.17.54-2.33.86-3.48.32-1.15.68-2.29,1.06-3.42.39-1.13.81-2.25,1.26-3.35.45-1.11.94-2.2,1.46-3.28.52-1.08,1.06-2.14,1.64-3.19.58-1.05,1.19-2.08,1.82-3.09.64-1.01,1.3-2.01,2-2.98.69-.97,1.41-1.93,2.16-2.86.75-.93,1.52-1.84,2.33-2.73.8-.89,1.63-1.75,2.48-2.59.85-.84,1.73-1.65,2.63-2.44.9-.79,1.82-1.54,2.77-2.27.95-.73,1.92-1.43,2.91-2.1.99-.67,2-1.31,3.03-1.92,1.03-.61,2.07-1.18,3.14-1.73,1.06-.54,2.14-1.06,3.23-1.54,1.09-.48,2.2-.93,3.32-1.35,1.12-.42,2.25-.8,3.39-1.15,1.14-.35,2.29-.67,3.45-.96,1.16-.29,2.33-.54,3.5-.77,1.17-.22,2.36-.41,3.54-.57,1.19-.16,2.37-.28,3.57-.37,1.19-.09,2.39-.15,3.58-.18,1.1-.03,2.19,0,3.29.03-.03-.48-.02-.97-.06-1.45-.13-1.9-.32-3.8-.55-5.7-.23-1.9-.5-3.79-.81-5.68-.31-1.89-.65-3.78-1.01-5.67-.37-1.89-.75-3.77-1.16-5.65-.81-3.76-1.67-7.51-2.51-11.25-.6-2.67-1.15-5.36-1.69-8.05H59.96Z"/><path class="cls-1" d="m21.91,0c.05.13.11.25.16.38.38.95.75,1.92,1.09,2.89.34.97.67,1.95.97,2.94.61,1.97,1.15,3.97,1.63,6,.48,2.02.9,4.07,1.27,6.13.37,2.06.69,4.13.98,6.2.29,2.08.53,4.16.76,6.24.23,2.08.43,4.16.62,6.23.38,4.14.73,8.31,1.16,12.47.22,2.08.45,4.16.72,6.23.27,2.07.57,4.13.92,6.18.13.74.29,1.47.43,2.21.57.13,1.14.28,1.72.39,1.05.2,2.11.36,3.17.48,1.06.12,2.13.19,3.2.22,1.07.03,2.14,0,3.21-.08,1.07-.08,2.13-.21,3.18-.4,1.05-.19,2.09-.43,3.12-.74,1.02-.3,2.03-.67,3.01-1.1.75-.33,1.49-.7,2.21-1.1.72-.4,1.41-.84,2.09-1.3s1.33-.96,1.96-1.49c.63-.53,1.24-1.08,1.83-1.66s1.14-1.18,1.68-1.81c.54-.63,1.04-1.28,1.53-1.95.48-.67.94-1.36,1.37-2.06.43-.71.83-1.43,1.19-2.16.37-.74.71-1.49,1.02-2.25.31-.76.59-1.53.85-2.31.26-.78.48-1.57.68-2.37.2-.8.37-1.6.52-2.41.15-.81.27-1.62.37-2.44.1-.82.17-1.64.21-2.46.05-.82.07-1.65.07-2.47,0-.82-.03-1.65-.08-2.47-.05-.82-.12-1.64-.21-2.45-.09-.81-.2-1.62-.34-2.43-.27-1.61-.61-3.21-1.03-4.78-.42-1.58-.9-3.14-1.45-4.68-.55-1.54-1.15-3.07-1.81-4.58-.66-1.51-1.37-3-2.12-4.48-.75-1.47-1.55-2.93-2.38-4.37-.46-.79-.94-1.57-1.42-2.35H21.91Z"/><path class="cls-3" d="m0,49.45c1.67.77,3.33,1.57,4.96,2.41,3.81,1.96,7.56,4.04,11.38,5.96,1.91.96,3.84,1.89,5.8,2.74.98.43,1.97.83,2.96,1.21s2,.74,3.02,1.08c1.02.33,2.04.64,3.08.91.47.12.94.21,1.41.32-.14-.74-.31-1.47-.43-2.21-.35-2.05-.65-4.11-.92-6.18-.27-2.07-.5-4.15-.72-6.23-.43-4.16-.78-8.33-1.16-12.47-.19-2.07-.39-4.15-.62-6.23-.23-2.08-.47-4.16-.76-6.24-.29-2.08-.61-4.15-.98-6.2-.37-2.06-.79-4.1-1.27-6.13-.48-2.02-1.02-4.02-1.63-6-.31-.99-.63-1.97-.97-2.94-.34-.97-.7-1.93-1.09-2.89-.05-.13-.11-.25-.16-.38H0v49.45Z"/><path class="cls-2" d="m79.4,191.58c-.1-.53-.16-1.07-.28-1.6-.31-1.44-.67-2.88-1.08-4.3-.41-1.42-.88-2.82-1.4-4.2-.52-1.38-1.09-2.75-1.71-4.08-.62-1.34-1.29-2.65-2.01-3.94-.72-1.29-1.49-2.55-2.31-3.78-.82-1.23-1.69-2.42-2.6-3.58-.91-1.16-1.87-2.28-2.88-3.36-1-1.08-2.05-2.13-3.14-3.13-1.09-1-2.21-1.96-3.37-2.87-1.16-.91-2.36-1.78-3.59-2.59-1.23-.82-2.49-1.59-3.78-2.3-1.29-.72-2.61-1.38-3.95-1.99-1.34-.61-2.71-1.17-4.1-1.67-1.39-.5-2.8-.94-4.22-1.32-1.43-.38-2.87-.7-4.32-.96-1.45-.26-2.92-.46-4.39-.6-1.47-.14-2.95-.21-4.42-.23-1.48-.03-2.95.03-4.43.13-1.47.1-2.94.27-4.4.5-1.46.23-2.91.52-4.34.87-1.43.35-2.85.76-4.25,1.23-1.4.47-2.78,1-4.13,1.6-1.35.59-2.68,1.25-3.97,1.96-.11.06-.22.14-.33.2v40.03h79.4Z"/><path class="cls-1" d="m198.6,191.58c-.44-.79-.9-1.57-1.4-2.32-.52-.79-1.07-1.57-1.65-2.32-.58-.75-1.19-1.49-1.82-2.2-.63-.71-1.29-1.4-1.97-2.07-.68-.67-1.38-1.32-2.09-1.94-.72-.62-1.45-1.22-2.2-1.8-.75-.58-1.51-1.14-2.29-1.68-.78-.54-1.57-1.06-2.37-1.56-.8-.5-1.62-.99-2.44-1.46-1.65-.94-3.34-1.81-5.06-2.62-1.72-.82-3.46-1.58-5.22-2.3-1.76-.72-3.53-1.4-5.32-2.06-1.79-.66-3.59-1.29-5.39-1.92-3.6-1.25-7.22-2.48-10.79-3.79-1.78-.66-3.56-1.34-5.31-2.05-1.75-.72-3.48-1.47-5.19-2.28-1.7-.81-3.38-1.67-5.02-2.6-.82-.46-1.63-.95-2.43-1.45-.8-.5-1.59-1.02-2.37-1.56-.98-.68-1.94-1.39-2.88-2.14-.94-.74-1.85-1.51-2.74-2.31-.89-.8-1.75-1.63-2.59-2.48-.84-.85-1.65-1.73-2.43-2.64-.78-.9-1.54-1.83-2.27-2.78-.73-.95-1.42-1.92-2.09-2.92-.67-.99-1.3-2.01-1.91-3.04-.6-1.03-1.18-2.08-1.71-3.15-.54-1.07-1.04-2.16-1.51-3.26-.47-1.1-.91-2.21-1.31-3.34-.37-1.03-.69-2.06-1-3.11-.65.08-1.3.2-1.95.27-1.85.17-3.71.27-5.57.29-1.86.03-3.72-.03-5.58-.17-1.86-.13-3.71-.34-5.54-.62-1.84-.28-3.66-.64-5.47-1.08-1.81-.44-3.6-.95-5.36-1.54-.88-.29-1.76-.61-2.63-.94-.87-.33-1.73-.68-2.58-1.05-.85-.37-1.7-.76-2.53-1.17-.84-.41-1.66-.84-2.48-1.28-.82-.44-1.62-.91-2.42-1.39-.8-.48-1.58-.98-2.36-1.49-1.55-1.03-3.06-2.12-4.52-3.28-1.46-1.16-2.87-2.38-4.22-3.65-1.35-1.28-2.65-2.61-3.89-4-.62-.69-1.22-1.4-1.81-2.12-.59-.72-1.16-1.45-1.71-2.2-.56-.75-1.09-1.5-1.62-2.27-.52-.77-1.03-1.55-1.51-2.34-.49-.79-.96-1.59-1.41-2.41-.45-.81-.88-1.64-1.29-2.47-.46-.93-.9-1.87-1.31-2.82-.41-.95-.8-1.9-1.17-2.86-.37-.96-.72-1.93-1.04-2.91-.33-.98-.64-1.96-.93-2.95-.58-1.98-1.09-3.98-1.54-6-.29-1.29-.52-2.59-.76-3.9-.47-.11-.94-.2-1.41-.32-1.04-.27-2.06-.57-3.08-.91-1.02-.33-2.02-.69-3.02-1.08-1-.38-1.98-.79-2.96-1.21-1.96-.85-3.89-1.78-5.8-2.74-3.82-1.93-7.58-4.01-11.38-5.96C3.33,51.02,1.67,50.22,0,49.45v102.11c.11-.06.22-.14.33-.2,1.29-.71,2.62-1.36,3.97-1.96,1.35-.59,2.73-1.12,4.13-1.6,1.4-.47,2.82-.88,4.25-1.23,1.43-.35,2.88-.64,4.34-.87,1.46-.23,2.93-.39,4.4-.5,1.47-.1,2.95-.15,4.43-.13,1.48.03,2.95.09,4.42.23,1.47.14,2.93.34,4.39.6,1.45.26,2.9.58,4.32.96,1.43.38,2.84.82,4.22,1.32,1.39.5,2.76,1.06,4.1,1.67,1.34.61,2.66,1.28,3.95,1.99,1.29.72,2.55,1.49,3.78,2.3,1.23.82,2.43,1.68,3.59,2.59,1.16.91,2.29,1.87,3.37,2.87,1.09,1,2.13,2.04,3.14,3.13,1,1.08,1.96,2.21,2.88,3.36.91,1.16,1.78,2.36,2.6,3.58.82,1.23,1.59,2.49,2.31,3.77.72,1.29,1.39,2.6,2.01,3.94.62,1.34,1.19,2.7,1.71,4.08.52,1.38.98,2.78,1.4,4.2.41,1.42.77,2.85,1.08,4.3.11.53.18,1.06.28,1.6h119.21Z"/><path class="cls-2" d="m272.47,136.07c-.3.17-.58.36-.88.51-.69.36-1.39.69-2.1.99-.71.3-1.44.56-2.18.79-.74.23-1.48.42-2.24.57-.75.15-1.52.26-2.28.33-.77.07-1.54.1-2.31.08-.72-.03-1.45-.07-2.16-.16-.72-.09-1.42-.22-2.13-.39-.7-.16-1.4-.36-2.08-.59-.69-.23-1.36-.49-2.02-.78-.66-.29-1.32-.61-1.95-.96-.64-.35-1.26-.72-1.87-1.12-.61-.4-1.2-.82-1.78-1.27-.58-.44-1.13-.91-1.67-1.4-.54-.49-1.06-.99-1.56-1.51-.5-.52-.99-1.06-1.45-1.61-.47-.55-.91-1.12-1.35-1.7-.43-.58-.85-1.17-1.25-1.78-.8-1.21-1.54-2.46-2.21-3.75-.68-1.29-1.3-2.6-1.86-3.94-.57-1.33-1.08-2.69-1.56-4.05-.48-1.37-.92-2.74-1.33-4.13-.83-2.78-1.54-5.59-2.25-8.41-.71-2.82-1.4-5.64-2.19-8.43-.39-1.4-.8-2.79-1.25-4.17-.44-1.38-.92-2.75-1.44-4.1-.43-1.12-.89-2.22-1.39-3.31-.49-1.09-1.02-2.16-1.57-3.23-.55-1.06-1.14-2.1-1.75-3.13-.61-1.03-1.25-2.04-1.92-3.03-.67-.99-1.36-1.97-2.08-2.93-.72-.96-1.46-1.89-2.23-2.81-.77-.92-1.56-1.81-2.38-2.69-.82-.87-1.66-1.73-2.52-2.56-.86-.83-1.75-1.64-2.65-2.42-.9-.78-1.83-1.54-2.77-2.27-.94-.73-1.91-1.44-2.89-2.12-.98-.68-1.98-1.33-3-1.96-1.02-.62-2.05-1.22-3.1-1.79-1.05-.57-2.12-1.1-3.2-1.61-1.08-.51-2.18-.98-3.29-1.43-1.11-.44-2.23-.86-3.37-1.23-1.13-.38-2.28-.72-3.44-1.03-1.15-.31-2.32-.59-3.49-.83-1.17-.24-2.35-.45-3.53-.63-1.18-.17-2.37-.32-3.56-.42-1.19-.11-2.38-.18-3.58-.22-.1,0-.2,0-.3,0,.08,1.42.16,2.84.17,4.27.02,1.91-.03,3.82-.15,5.73-.12,1.86-.3,3.71-.56,5.55-.26,1.84-.58,3.68-.97,5.5-.39,1.82-.86,3.62-1.38,5.41s-1.12,3.55-1.78,5.29c-.66,1.74-1.38,3.45-2.17,5.14-.79,1.68-1.64,3.34-2.55,4.96-.91,1.62-1.89,3.2-2.93,4.75-1.04,1.54-2.13,3.05-3.29,4.51-1.16,1.46-2.37,2.87-3.64,4.23-1.27,1.36-2.59,2.67-3.96,3.93-1.37,1.26-2.8,2.46-4.26,3.6-1.47,1.15-2.98,2.23-4.53,3.26-1.55,1.03-3.14,1.99-4.77,2.89-1.63.9-3.29,1.74-4.98,2.51-1.69.77-3.42,1.47-5.17,2.09-1.75.63-3.53,1.18-5.32,1.66-1.8.48-3.62.88-5.45,1.21-1.19.21-2.38.34-3.58.49.31,1.04.64,2.08,1,3.11.4,1.13.84,2.24,1.31,3.34.47,1.1.97,2.19,1.51,3.26.54,1.07,1.11,2.12,1.71,3.15.6,1.03,1.24,2.05,1.91,3.04.67.99,1.36,1.97,2.09,2.92.73.95,1.48,1.88,2.27,2.78s1.6,1.78,2.43,2.64c.84.85,1.7,1.68,2.59,2.48.89.8,1.8,1.57,2.74,2.31.94.74,1.9,1.46,2.88,2.14.78.54,1.57,1.06,2.37,1.56.8.5,1.61.98,2.43,1.45,1.64.93,3.32,1.79,5.02,2.6,1.7.81,3.44,1.56,5.19,2.28,1.75.72,3.52,1.4,5.31,2.05,3.57,1.31,7.19,2.54,10.79,3.79,1.8.63,3.6,1.26,5.39,1.92s3.56,1.34,5.32,2.06c1.76.72,3.5,1.48,5.22,2.3,1.72.82,3.41,1.69,5.06,2.62.83.47,1.64.95,2.44,1.46.8.5,1.59,1.02,2.37,1.56.78.54,1.54,1.1,2.29,1.68.75.58,1.48,1.18,2.2,1.8.72.62,1.41,1.27,2.09,1.94.68.67,1.33,1.36,1.97,2.07.63.71,1.24,1.45,1.82,2.2.58.75,1.13,1.53,1.65,2.32.5.76.96,1.53,1.4,2.32h73.86v-55.51Z"/><path class="cls-3" d="m214.23,0h-54.91c.55,2.69,1.1,5.39,1.69,8.05.84,3.74,1.7,7.49,2.51,11.25.4,1.88.79,3.76,1.16,5.65.37,1.89.71,3.78,1.01,5.67.31,1.89.58,3.79.81,5.68.23,1.9.42,3.8.55,5.7.03.48.03.97.06,1.45.1,0,.2,0,.3,0,1.2.04,2.39.12,3.58.22,1.19.11,2.38.25,3.56.42,1.18.17,2.36.38,3.53.63,1.17.24,2.33.52,3.49.83,1.15.31,2.3.65,3.44,1.03,1.13.38,2.26.79,3.37,1.23,1.11.44,2.2.92,3.29,1.43,1.08.51,2.15,1.04,3.2,1.61,1.05.57,2.09,1.16,3.1,1.79,1.02.62,2.02,1.28,3,1.96.98.68,1.95,1.39,2.89,2.12.94.73,1.87,1.49,2.77,2.27.9.78,1.79,1.59,2.65,2.42.86.83,1.7,1.68,2.52,2.56.82.87,1.61,1.77,2.38,2.69.77.92,1.51,1.85,2.23,2.81.72.96,1.41,1.93,2.08,2.93.67.99,1.3,2,1.92,3.03.61,1.03,1.19,2.07,1.75,3.13.55,1.06,1.08,2.14,1.57,3.22.49,1.09.96,2.19,1.39,3.31.52,1.35,1,2.72,1.44,4.1.44,1.38.86,2.77,1.25,4.17.78,2.79,1.48,5.61,2.19,8.43.71,2.82,1.43,5.63,2.25,8.41.41,1.39.85,2.77,1.33,4.13.48,1.36.99,2.72,1.56,4.05.57,1.33,1.19,2.65,1.86,3.94.68,1.29,1.41,2.54,2.21,3.75.4.6.82,1.2,1.25,1.78.43.58.88,1.15,1.35,1.7.47.55.95,1.09,1.45,1.61.5.52,1.02,1.02,1.56,1.51.54.49,1.09.95,1.67,1.4.58.44,1.17.87,1.78,1.27.61.4,1.23.77,1.87,1.12.64.35,1.29.67,1.95.96.66.29,1.34.55,2.02.78.69.23,1.38.43,2.08.59.7.16,1.41.29,2.13.39.72.09,1.44.15,2.16.17.77.03,1.55,0,2.31-.08.77-.07,1.53-.18,2.28-.33.75-.15,1.5-.34,2.24-.57.74-.23,1.46-.49,2.18-.79.71-.3,1.42-.63,2.1-.99.3-.16.59-.34.88-.51V42.52c-1.04.14-2.08.25-3.12.32-1.1.07-2.2.11-3.3.1-1.1,0-2.2-.04-3.3-.12-1.1-.08-2.2-.2-3.29-.35-1.09-.16-2.18-.35-3.25-.58-1.08-.23-2.15-.5-3.21-.8-1.06-.3-2.11-.64-3.14-1.02-1.04-.37-2.06-.78-3.07-1.23-1.01-.44-2-.92-2.98-1.42-.98-.51-1.94-1.05-2.89-1.61-.94-.57-1.87-1.17-2.78-1.8-.91-.63-1.79-1.28-2.66-1.97-.86-.68-1.71-1.4-2.52-2.14-.9-.81-1.77-1.65-2.61-2.52-.84-.87-1.65-1.77-2.43-2.69-.78-.92-1.54-1.87-2.27-2.83-.73-.97-1.43-1.95-2.1-2.96-.67-1.01-1.32-2.03-1.95-3.07s-1.22-2.1-1.8-3.17c-.57-1.07-1.12-2.15-1.65-3.25-.53-1.09-1.03-2.2-1.51-3.31-.48-1.11-.94-2.23-1.38-3.36-.36-.91-.69-1.83-1.03-2.76Z"/><path class="cls-2" d="m214.23,0c.33.92.67,1.84,1.03,2.75.44,1.13.9,2.25,1.38,3.36.48,1.11.99,2.22,1.51,3.31.53,1.09,1.08,2.18,1.65,3.25.57,1.07,1.17,2.13,1.8,3.17.62,1.04,1.27,2.07,1.95,3.07.67,1.01,1.37,1.99,2.1,2.96.73.97,1.48,1.91,2.27,2.83.78.92,1.59,1.82,2.43,2.69.84.87,1.71,1.71,2.61,2.52.82.74,1.66,1.45,2.52,2.14.86.68,1.75,1.34,2.66,1.97.91.63,1.83,1.23,2.78,1.8.94.57,1.91,1.11,2.89,1.61.98.51,1.97.98,2.98,1.42,1.01.44,2.03.85,3.07,1.23,1.04.37,2.08.71,3.14,1.02,1.06.3,2.13.57,3.21.8,1.08.23,2.16.42,3.25.58,1.09.16,2.19.27,3.29.35,1.1.08,2.2.12,3.3.12,1.1,0,2.2-.03,3.3-.1,1.04-.07,2.09-.18,3.12-.32V0h-58.24Z"/></g></g></svg>